<?xml version="1.0" encoding="UTF-8"?>
<!DOCTYPE svg
PUBLIC "-//W3C//DTD SVG 1.1//EN"
       "http://www.w3.org/Graphics/SVG/1.1/DTD/svg11.dtd">
<svg viewBox="47 13 1075 758" width="1028px" height="745px" xmlns="http://www.w3.org/2000/svg" version="1.1">
   <line x1="626" y1="693" x2="616" y2="693" style="stroke:#0bf;stroke-width:1;"/>
   <line x1="624" y1="211" x2="634" y2="211" style="stroke:#0bf;stroke-width:1;"/>
   <line x1="616" y1="693" x2="624" y2="211" style="stroke:#0bf;stroke-width:1;"/>
   <line x1="618.5" y1="693" x2="622.03553390593" y2="696.53553390593" style="stroke:#0bf;stroke-width:2;"/>
   <line x1="618.5" y1="693" x2="622.03553390593" y2="689.46446609407" style="stroke:#0bf;stroke-width:2;"/>
   <line x1="629" y1="211" x2="625.46446609407" y2="214.53553390593" style="stroke:#0bf;stroke-width:2;"/>
   <line x1="629" y1="211" x2="625.46446609407" y2="207.46446609407" style="stroke:#0bf;stroke-width:2;"/>
   <line x1="626" y1="78" x2="616" y2="78" style="stroke:#c00;stroke-width:1;"/>
   <line x1="624" y1="211" x2="634" y2="211" style="stroke:#c00;stroke-width:1;"/>
   <line x1="616" y1="78" x2="624" y2="211" style="stroke:#c00;stroke-width:1;"/>
   <line x1="618.5" y1="78" x2="622.03553390593" y2="81.535533905933" style="stroke:#c00;stroke-width:2;"/>
   <line x1="618.5" y1="78" x2="622.03553390593" y2="74.464466094067" style="stroke:#c00;stroke-width:2;"/>
   <line x1="629" y1="211" x2="625.46446609407" y2="214.53553390593" style="stroke:#c00;stroke-width:2;"/>
   <line x1="629" y1="211" x2="625.46446609407" y2="207.46446609407" style="stroke:#c00;stroke-width:2;"/>
   <line x1="303" y1="79" x2="313" y2="79" style="stroke:#c00;stroke-width:1;"/>
   <line x1="624" y1="211" x2="634" y2="211" style="stroke:#c00;stroke-width:1;"/>
   <line x1="313" y1="79" x2="624" y2="211" style="stroke:#c00;stroke-width:1;"/>
   <line x1="310.5" y1="79" x2="306.96446609407" y2="82.535533905933" style="stroke:#c00;stroke-width:2;"/>
   <line x1="310.5" y1="79" x2="306.96446609407" y2="75.464466094067" style="stroke:#c00;stroke-width:2;"/>
   <line x1="629" y1="211" x2="625.46446609407" y2="214.53553390593" style="stroke:#c00;stroke-width:2;"/>
   <line x1="629" y1="211" x2="625.46446609407" y2="207.46446609407" style="stroke:#c00;stroke-width:2;"/>
   <rect width="115" height="20" x="945" y="29" style="fill:#007;stroke:black;"/>
   <text width="115" height="20" x="950" y="43" style="fill:#fff;" font-family="Arial" font-size="16px"> admin</text>
   <rect width="115" height="20" x="945" y="49" style="fill:#aea;stroke:black;"/>
   <text width="115" height="20" x="950" y="63" style="fill:black;" font-family="Arial" font-size="16px">id</text>
   <rect width="115" height="20" x="945" y="69" style="fill:none;stroke:black;"/>
   <text width="115" height="20" x="950" y="83" style="fill:black;" font-family="Arial" font-size="16px">username</text>
   <rect width="115" height="20" x="945" y="89" style="fill:none;stroke:black;"/>
   <text width="115" height="20" x="950" y="103" style="fill:black;" font-family="Arial" font-size="16px">user_password</text>
   <rect width="115" height="20" x="945" y="109" style="fill:none;stroke:black;"/>
   <text width="115" height="20" x="950" y="123" style="fill:black;" font-family="Arial" font-size="16px">full_name</text>
   <rect width="172" height="20" x="62" y="125" style="fill:#007;stroke:black;"/>
   <text width="172" height="20" x="67" y="139" style="fill:#fff;" font-family="Arial" font-size="16px"> applicants</text>
   <rect width="172" height="20" x="62" y="145" style="fill:#aea;stroke:black;"/>
   <text width="172" height="20" x="67" y="159" style="fill:black;" font-family="Arial" font-size="16px">id</text>
   <rect width="172" height="20" x="62" y="165" style="fill:none;stroke:black;"/>
   <text width="172" height="20" x="67" y="179" style="fill:black;" font-family="Arial" font-size="16px">first_name</text>
   <rect width="172" height="20" x="62" y="185" style="fill:none;stroke:black;"/>
   <text width="172" height="20" x="67" y="199" style="fill:black;" font-family="Arial" font-size="16px">last_name</text>
   <rect width="172" height="20" x="62" y="205" style="fill:none;stroke:black;"/>
   <text width="172" height="20" x="67" y="219" style="fill:black;" font-family="Arial" font-size="16px">middle_initial</text>
   <rect width="172" height="20" x="62" y="225" style="fill:none;stroke:black;"/>
   <text width="172" height="20" x="67" y="239" style="fill:black;" font-family="Arial" font-size="16px">sex</text>
   <rect width="172" height="20" x="62" y="245" style="fill:none;stroke:black;"/>
   <text width="172" height="20" x="67" y="259" style="fill:black;" font-family="Arial" font-size="16px">current_address</text>
   <rect width="172" height="20" x="62" y="265" style="fill:none;stroke:black;"/>
   <text width="172" height="20" x="67" y="279" style="fill:black;" font-family="Arial" font-size="16px">place_of_birth</text>
   <rect width="172" height="20" x="62" y="285" style="fill:none;stroke:black;"/>
   <text width="172" height="20" x="67" y="299" style="fill:black;" font-family="Arial" font-size="16px">birthdate</text>
   <rect width="172" height="20" x="62" y="305" style="fill:none;stroke:black;"/>
   <text width="172" height="20" x="67" y="319" style="fill:black;" font-family="Arial" font-size="16px">phone_number</text>
   <rect width="172" height="20" x="62" y="325" style="fill:none;stroke:black;"/>
   <text width="172" height="20" x="67" y="339" style="fill:black;" font-family="Arial" font-size="16px">email</text>
   <rect width="172" height="20" x="62" y="345" style="fill:none;stroke:black;"/>
   <text width="172" height="20" x="67" y="359" style="fill:black;" font-family="Arial" font-size="16px">linkedin_profile</text>
   <rect width="172" height="20" x="62" y="365" style="fill:none;stroke:black;"/>
   <text width="172" height="20" x="67" y="379" style="fill:black;" font-family="Arial" font-size="16px">educational_attainment</text>
   <rect width="172" height="20" x="62" y="385" style="fill:none;stroke:black;"/>
   <text width="172" height="20" x="67" y="399" style="fill:black;" font-family="Arial" font-size="16px">civil_status</text>
   <rect width="172" height="20" x="62" y="405" style="fill:none;stroke:black;"/>
   <text width="172" height="20" x="67" y="419" style="fill:black;" font-family="Arial" font-size="16px">nationality</text>
   <rect width="172" height="20" x="62" y="425" style="fill:none;stroke:black;"/>
   <text width="172" height="20" x="67" y="439" style="fill:black;" font-family="Arial" font-size="16px">SSN</text>
   <rect width="172" height="20" x="62" y="445" style="fill:none;stroke:black;"/>
   <text width="172" height="20" x="67" y="459" style="fill:black;" font-family="Arial" font-size="16px">target_position</text>
   <rect width="172" height="20" x="62" y="465" style="fill:none;stroke:black;"/>
   <text width="172" height="20" x="67" y="479" style="fill:black;" font-family="Arial" font-size="16px">birth_certificate_id</text>
   <rect width="172" height="20" x="62" y="485" style="fill:none;stroke:black;"/>
   <text width="172" height="20" x="67" y="499" style="fill:black;" font-family="Arial" font-size="16px">user_password</text>
   <rect width="172" height="20" x="62" y="505" style="fill:none;stroke:black;"/>
   <text width="172" height="20" x="67" y="519" style="fill:black;" font-family="Arial" font-size="16px">skills_csv</text>
   <rect width="172" height="20" x="62" y="525" style="fill:none;stroke:black;"/>
   <text width="172" height="20" x="67" y="539" style="fill:black;" font-family="Arial" font-size="16px">job_history_csv</text>
   <rect width="172" height="20" x="62" y="545" style="fill:none;stroke:black;"/>
   <text width="172" height="20" x="67" y="559" style="fill:black;" font-family="Arial" font-size="16px">approved</text>
   <rect width="172" height="20" x="62" y="565" style="fill:none;stroke:black;"/>
   <text width="172" height="20" x="67" y="579" style="fill:black;" font-family="Arial" font-size="16px">do_not_show</text>
   <rect width="172" height="20" x="634" y="181" style="fill:#007;stroke:black;"/>
   <text width="172" height="20" x="639" y="195" style="fill:#fff;" font-family="Arial" font-size="16px"> employee</text>
   <rect width="172" height="20" x="634" y="201" style="fill:#aea;stroke:black;"/>
   <text width="172" height="20" x="639" y="215" style="fill:black;" font-family="Arial" font-size="16px">id</text>
   <rect width="172" height="20" x="634" y="221" style="fill:none;stroke:black;"/>
   <text width="172" height="20" x="639" y="235" style="fill:black;" font-family="Arial" font-size="16px">first_name</text>
   <rect width="172" height="20" x="634" y="241" style="fill:none;stroke:black;"/>
   <text width="172" height="20" x="639" y="255" style="fill:black;" font-family="Arial" font-size="16px">last_name</text>
   <rect width="172" height="20" x="634" y="261" style="fill:none;stroke:black;"/>
   <text width="172" height="20" x="639" y="275" style="fill:black;" font-family="Arial" font-size="16px">middle_initial</text>
   <rect width="172" height="20" x="634" y="281" style="fill:none;stroke:black;"/>
   <text width="172" height="20" x="639" y="295" style="fill:black;" font-family="Arial" font-size="16px">sex</text>
   <rect width="172" height="20" x="634" y="301" style="fill:none;stroke:black;"/>
   <text width="172" height="20" x="639" y="315" style="fill:black;" font-family="Arial" font-size="16px">current_address</text>
   <rect width="172" height="20" x="634" y="321" style="fill:none;stroke:black;"/>
   <text width="172" height="20" x="639" y="335" style="fill:black;" font-family="Arial" font-size="16px">place_of_birth</text>
   <rect width="172" height="20" x="634" y="341" style="fill:none;stroke:black;"/>
   <text width="172" height="20" x="639" y="355" style="fill:black;" font-family="Arial" font-size="16px">birthdate</text>
   <rect width="172" height="20" x="634" y="361" style="fill:none;stroke:black;"/>
   <text width="172" height="20" x="639" y="375" style="fill:black;" font-family="Arial" font-size="16px">phone_number</text>
   <rect width="172" height="20" x="634" y="381" style="fill:none;stroke:black;"/>
   <text width="172" height="20" x="639" y="395" style="fill:black;" font-family="Arial" font-size="16px">email</text>
   <rect width="172" height="20" x="634" y="401" style="fill:none;stroke:black;"/>
   <text width="172" height="20" x="639" y="415" style="fill:black;" font-family="Arial" font-size="16px">linkedin_profile</text>
   <rect width="172" height="20" x="634" y="421" style="fill:none;stroke:black;"/>
   <text width="172" height="20" x="639" y="435" style="fill:black;" font-family="Arial" font-size="16px">educational_attainment</text>
   <rect width="172" height="20" x="634" y="441" style="fill:none;stroke:black;"/>
   <text width="172" height="20" x="639" y="455" style="fill:black;" font-family="Arial" font-size="16px">civil_status</text>
   <rect width="172" height="20" x="634" y="461" style="fill:none;stroke:black;"/>
   <text width="172" height="20" x="639" y="475" style="fill:black;" font-family="Arial" font-size="16px">nationality</text>
   <rect width="172" height="20" x="634" y="481" style="fill:none;stroke:black;"/>
   <text width="172" height="20" x="639" y="495" style="fill:black;" font-family="Arial" font-size="16px">SSN</text>
   <rect width="172" height="20" x="634" y="501" style="fill:none;stroke:black;"/>
   <text width="172" height="20" x="639" y="515" style="fill:black;" font-family="Arial" font-size="16px">target_position</text>
   <rect width="172" height="20" x="634" y="521" style="fill:none;stroke:black;"/>
   <text width="172" height="20" x="639" y="535" style="fill:black;" font-family="Arial" font-size="16px">birth_certificate_id</text>
   <rect width="172" height="20" x="634" y="541" style="fill:none;stroke:black;"/>
   <text width="172" height="20" x="639" y="555" style="fill:black;" font-family="Arial" font-size="16px">employment_date</text>
   <rect width="118" height="20" x="626" y="643" style="fill:#007;stroke:black;"/>
   <text width="118" height="20" x="631" y="657" style="fill:#fff;" font-family="Arial" font-size="16px"> employee_deps</text>
   <rect width="118" height="20" x="626" y="663" style="fill:#aea;stroke:black;"/>
   <text width="118" height="20" x="631" y="677" style="fill:black;" font-family="Arial" font-size="16px">id</text>
   <rect width="118" height="20" x="626" y="683" style="fill:none;stroke:black;"/>
   <text width="118" height="20" x="631" y="697" style="fill:black;" font-family="Arial" font-size="16px">employee_id</text>
   <rect width="118" height="20" x="626" y="703" style="fill:none;stroke:black;"/>
   <text width="118" height="20" x="631" y="717" style="fill:black;" font-family="Arial" font-size="16px">dep_name</text>
   <rect width="118" height="20" x="626" y="723" style="fill:none;stroke:black;"/>
   <text width="118" height="20" x="631" y="737" style="fill:black;" font-family="Arial" font-size="16px">dep_relation</text>
   <rect width="160" height="20" x="626" y="28" style="fill:#007;stroke:black;"/>
   <text width="160" height="20" x="631" y="42" style="fill:#fff;" font-family="Arial" font-size="16px"> employee_job_history</text>
   <rect width="160" height="20" x="626" y="48" style="fill:#aea;stroke:black;"/>
   <text width="160" height="20" x="631" y="62" style="fill:black;" font-family="Arial" font-size="16px">id</text>
   <rect width="160" height="20" x="626" y="68" style="fill:none;stroke:black;"/>
   <text width="160" height="20" x="631" y="82" style="fill:black;" font-family="Arial" font-size="16px">employee_id</text>
   <rect width="160" height="20" x="626" y="88" style="fill:none;stroke:black;"/>
   <text width="160" height="20" x="631" y="102" style="fill:black;" font-family="Arial" font-size="16px">job_name</text>
   <rect width="160" height="20" x="626" y="108" style="fill:none;stroke:black;"/>
   <text width="160" height="20" x="631" y="122" style="fill:black;" font-family="Arial" font-size="16px">job_desc</text>
   <rect width="160" height="20" x="626" y="128" style="fill:none;stroke:black;"/>
   <text width="160" height="20" x="631" y="142" style="fill:black;" font-family="Arial" font-size="16px">year_started</text>
   <rect width="160" height="20" x="626" y="148" style="fill:none;stroke:black;"/>
   <text width="160" height="20" x="631" y="162" style="fill:black;" font-family="Arial" font-size="16px">year_ended</text>
   <rect width="118" height="20" x="185" y="29" style="fill:#007;stroke:black;"/>
   <text width="118" height="20" x="190" y="43" style="fill:#fff;" font-family="Arial" font-size="16px"> employee_skills</text>
   <rect width="118" height="20" x="185" y="49" style="fill:#aea;stroke:black;"/>
   <text width="118" height="20" x="190" y="63" style="fill:black;" font-family="Arial" font-size="16px">id</text>
   <rect width="118" height="20" x="185" y="69" style="fill:none;stroke:black;"/>
   <text width="118" height="20" x="190" y="83" style="fill:black;" font-family="Arial" font-size="16px">employee_id</text>
   <rect width="118" height="20" x="185" y="89" style="fill:none;stroke:black;"/>
   <text width="118" height="20" x="190" y="103" style="fill:black;" font-family="Arial" font-size="16px">skill</text>
</svg>
